<svg xmlns="http://www.w3.org/2000/svg" width="1600" height="1000" viewBox="0 0 1600 1000" fill="none">
  <rect width="1600" height="1000" fill="#E5E0DC"/>
  <rect x="64" y="64" width="1472" height="872" rx="40" fill="#ECE7E2"/>
  <rect x="128" y="128" width="1344" height="744" rx="28" fill="#F7F3EF" stroke="#C9BBB0" stroke-width="2"/>
  <rect x="594" y="164" width="412" height="712" rx="44" fill="#F1ECE6" stroke="#D2C4B9" stroke-width="4"/>
  <rect x="634" y="230" width="332" height="22" rx="11" fill="#C8BAAE"/>
  <rect x="634" y="284" width="250" height="22" rx="11" fill="#D9CEC5"/>
  <rect x="634" y="336" width="288" height="132" rx="24" fill="#E3D9D0"/>
  <rect x="634" y="496" width="332" height="18" rx="9" fill="#D9CEC5"/>
  <rect x="634" y="538" width="332" height="18" rx="9" fill="#D9CEC5"/>
  <rect x="634" y="580" width="292" height="18" rx="9" fill="#D9CEC5"/>
  <rect x="634" y="646" width="156" height="72" rx="20" fill="#D0C2B7"/>
  <rect x="810" y="646" width="156" height="72" rx="20" fill="#C4B5A8"/>
  <rect x="720" y="770" width="160" height="12" rx="6" fill="#C4B5A8"/>
  <text x="800" y="926" fill="#7A6D63" font-family="Georgia, 'Times New Roman', serif" font-size="48" text-anchor="middle">Prototype preview</text>
  <text x="800" y="964" fill="#9C8F85" font-family="Arial, Helvetica, sans-serif" font-size="22" letter-spacing="4" text-anchor="middle">OPEN THE LIVE PROTOTYPE IN A NEW TAB</text>
</svg>
