<svg preserveAspectRatio="none" width="100%" height="100%" overflow="visible" style="display: block;" viewBox="0 0 297.225 80.1079" fill="none" xmlns="http://www.w3.org/2000/svg">
<path id="Center Line" d="M60.8806 74.6042L61.0417 74.1309L61.0264 74.1256L61.0107 74.1214L60.8806 74.6042ZM0.445845 32.3903C0.17133 32.4202 -0.0269437 32.667 0.00298896 32.9416C0.0329216 33.2161 0.279725 33.4143 0.554241 33.3844L0.500043 32.8874L0.445845 32.3903ZM256.116 15.5057L255.745 15.1709V15.1709L256.116 15.5057ZM291.892 2.66667C291.892 4.13943 293.086 5.33333 294.558 5.33333C296.031 5.33333 297.225 4.13943 297.225 2.66667C297.225 1.19391 296.031 0 294.558 0C293.086 0 291.892 1.19391 291.892 2.66667ZM60.8806 74.6042L61.0107 74.1214C55.3475 72.5948 49.9043 69.1365 44.6198 64.7966C39.3359 60.4571 34.2497 55.27 29.2826 50.3112C24.3275 45.3643 19.4855 40.6391 14.725 37.2789C9.9686 33.9217 5.21554 31.8702 0.445845 32.3903L0.500043 32.8874L0.554241 33.3844C4.96239 32.9038 9.46435 34.7898 14.1483 38.0959C18.8282 41.3991 23.612 46.063 28.5761 51.0189C33.5281 55.9626 38.6546 61.1916 43.9851 65.5694C49.315 69.9466 54.8878 73.5066 60.7504 75.087L60.8806 74.6042ZM60.8806 74.6042L60.7194 75.0775C65.2833 76.6315 69.9522 76.3209 74.744 75.015C79.5276 73.7113 84.4716 71.4044 89.5936 68.931C99.8754 63.9661 110.905 58.3234 123.193 58.3234V57.8234V57.3234C110.631 57.3234 99.3822 63.0938 89.1587 68.0305C84.028 70.5081 79.1629 72.7742 74.4811 74.0502C69.8075 75.3239 65.355 75.5996 61.0417 74.1309L60.8806 74.6042ZM123.193 57.8234V58.3234C136.819 58.3234 145.99 64.1632 155.585 69.8408C165.178 75.5171 175.161 81.0034 190.272 79.9851L190.238 79.4862L190.205 78.9873C175.414 79.9841 165.657 74.639 156.094 68.9801C146.534 63.3225 137.134 57.3234 123.193 57.3234V57.8234ZM190.238 79.4862L190.272 79.9851C205.456 78.9618 217.957 67.3352 228.65 53.852C234.007 47.0977 238.938 39.8399 243.541 33.154C248.152 26.4572 252.426 20.3458 256.488 15.8405L256.116 15.5057L255.745 15.1709C251.631 19.7337 247.32 25.902 242.717 32.5869C238.107 39.2827 233.198 46.5087 227.867 53.2306C217.185 66.6999 204.923 77.9955 190.205 78.9873L190.238 79.4862ZM256.116 15.5057L256.488 15.8405C261.892 9.84635 267.431 6.08392 273.578 4.11262C279.73 2.13996 286.532 1.94755 294.483 3.16094L294.558 2.66667L294.634 2.17239C286.585 0.944197 279.617 1.12585 273.273 3.16038C266.924 5.19626 261.242 9.07414 255.745 15.1709L256.116 15.5057Z" fill="var(--stroke-0, #0041E7)"/>
</svg>
