<svg xmlns="http://www.w3.org/2000/svg" viewBox="0 0 96 96">
  <defs>
    <linearGradient id="bg" x1="6" y1="8" x2="88" y2="88" gradientUnits="userSpaceOnUse">
      <stop stop-color="#efe9ff"/>
      <stop offset="1" stop-color="#b8a8ef"/>
    </linearGradient>
    <linearGradient id="shirt" x1="18" y1="68" x2="80" y2="96" gradientUnits="userSpaceOnUse">
      <stop stop-color="#00866e"/>
      <stop offset="1" stop-color="#005244"/>
    </linearGradient>
  </defs>
  <rect width="96" height="96" fill="url(#bg)"/>
  <circle cx="49" cy="40" r="25" fill="#151212"/>
  <circle cx="49" cy="44" r="19" fill="#b97855"/>
  <path fill="#151212" d="M25 42c1-18 12-29 28-28 16 1 25 12 24 31-13-12-31-14-52-3z"/>
  <path fill="url(#shirt)" d="M13 96c5-22 19-34 36-34 18 0 32 12 37 34H13z"/>
  <circle cx="42" cy="45" r="2.4" fill="#160f0d"/>
  <circle cx="58" cy="45" r="2.4" fill="#160f0d"/>
  <path d="M42 55c5 4 11 4 16 0" fill="none" stroke="#7a422d" stroke-width="3" stroke-linecap="round"/>
</svg>
